<svg xmlns="http://www.w3.org/2000/svg" width="200" height="200" viewBox="0 0 200 200" fill="none"><path fill-rule="evenodd" clip-rule="evenodd" d="M88.7404 16.7429C74.7589 18.6469 61.2569 24.1339 49.8329 32.5549C44.5204 36.4704 36.4399 44.5509 32.5244 49.8634C10.4919 79.7529 10.4919 120.18 32.5244 150.069C36.4399 155.382 44.5204 163.462 49.8329 167.378C79.7224 189.41 120.149 189.41 150.039 167.378C155.351 163.462 163.432 155.382 167.347 150.069C189.38 120.18 189.38 79.7529 167.347 49.8634C163.432 44.5509 155.351 36.4704 150.039 32.5549C132.429 19.5739 110.151 13.8274 88.7404 16.7429ZM113.011 25.4449C143.635 30.7244 167.749 54.3434 174.292 85.4664C175.563 91.5119 175.563 108.421 174.292 114.466C167.749 145.589 143.635 169.208 113.011 174.488C105.327 175.813 94.5444 175.813 86.8604 174.488C56.2369 169.208 32.1224 145.589 25.5794 114.466C24.3084 108.421 24.3084 91.5119 25.5794 85.4664C26.9699 78.8529 29.2639 72.2199 32.2374 66.2164C42.7359 45.0184 63.3954 29.5294 86.6284 25.4389C93.8409 24.1689 105.626 24.1714 113.011 25.4449ZM59.4359 54.3584C59.4359 56.7689 59.4669 56.8174 61.3684 57.3869C64.2759 58.2584 65.7394 59.6584 66.3734 62.1749C67.1624 65.3079 67.1624 134.625 66.3734 137.758C65.7394 140.274 64.2759 141.674 61.3684 142.546C59.4709 143.114 59.4359 143.168 59.4359 145.545V147.966L85.0609 147.956C99.4029 147.951 112.227 147.726 114.186 147.447C127.679 145.521 135.722 140.006 138.931 130.48C140.304 126.403 140.784 119.536 139.948 115.92C138.207 108.387 132.107 102.019 123.436 98.6819C122.198 98.2059 121.012 97.6654 120.801 97.4814C120.589 97.2969 122.091 96.2959 124.139 95.2569C133.558 90.4759 138.612 83.6254 139.292 74.7164C139.951 66.0884 135.808 58.8724 128.238 55.4634C121.3 52.3389 120.983 52.3119 88.8109 52.1009L59.4359 51.9084V54.3584ZM105.536 61.0284C108.731 61.7064 112.286 63.4384 113.786 65.0479C116.579 68.0439 117.813 73.8194 116.953 79.8594C116.011 86.4749 113.094 90.3639 107.436 92.5484C105.087 93.4554 103.556 93.6179 96.9359 93.6634L89.1859 93.7164L89.0539 77.7209C88.9809 68.9229 89.0304 61.4419 89.1629 61.0959C89.4769 60.2774 101.759 60.2274 105.536 61.0284ZM108.637 103.768C112.282 105.178 115.657 108.442 117.004 111.862C117.958 114.283 118.129 115.665 118.129 120.966C118.129 128.403 117.14 131.644 113.877 134.907C110.384 138.4 107.6 139.134 97.6859 139.178L89.1859 139.216L89.0549 120.784L88.9234 102.353L97.5549 102.586C104.429 102.772 106.685 103.012 108.637 103.768Z" fill="white"/></svg>