<svg width="396" height="396" viewBox="0 0 396 396" fill="none" xmlns="http://www.w3.org/2000/svg">
<path opacity="0.5" fill-rule="evenodd" clip-rule="evenodd" d="M171.59 1.75222C138.609 6.24283 106.758 19.184 79.8098 39.0451C67.278 48.2798 48.2165 67.3378 38.9801 79.8674C-12.9934 150.362 -12.9934 245.71 38.9801 316.205C48.2165 328.734 67.278 347.792 79.8098 357.027C150.317 408.991 245.682 408.991 316.19 357.027C328.722 347.792 347.783 328.734 357.02 316.205C408.993 245.71 408.993 150.362 357.02 79.8674C347.783 67.3378 328.722 48.2798 316.19 39.0451C274.649 8.42918 222.097 -5.12403 171.59 1.75222ZM228.844 22.276C301.083 34.7278 357.968 90.4335 373.403 163.838C376.401 178.096 376.401 217.976 373.403 232.234C357.968 305.639 301.083 361.344 228.844 373.796C210.718 376.921 185.282 376.921 167.156 373.796C94.9165 361.344 38.0318 305.639 22.5972 232.234C19.599 217.976 19.599 178.096 22.5972 163.838C25.8773 148.24 31.2887 132.596 38.303 118.436C63.0684 68.4404 111.803 31.9094 166.608 22.2619C183.622 19.2665 211.422 19.2724 228.844 22.276ZM102.463 90.4689C102.463 96.1541 102.536 96.2685 107.021 97.6117C113.88 99.6671 117.332 102.969 118.828 108.904C120.689 116.293 120.689 279.779 118.828 287.168C117.332 293.103 113.88 296.405 107.021 298.46C102.545 299.801 102.463 299.929 102.463 305.535V311.245L162.911 311.221C196.743 311.208 226.994 310.679 231.615 310.019C263.444 305.477 282.418 292.47 289.988 270.003C293.227 260.388 294.359 244.192 292.387 235.664C288.28 217.897 273.891 202.878 253.435 195.007C250.516 193.884 247.718 192.609 247.219 192.175C246.719 191.74 250.264 189.379 255.094 186.929C277.312 175.653 289.235 159.496 290.84 138.484C292.394 118.134 282.621 101.115 264.764 93.0751C248.398 85.7059 247.65 85.6422 171.757 85.1446L102.463 84.6906V90.4689ZM211.211 106.2C218.747 107.799 227.134 111.884 230.673 115.68C237.26 122.746 240.172 136.368 238.143 150.613C235.92 166.216 229.039 175.388 215.692 180.541C210.151 182.68 206.541 183.063 190.923 183.17L172.641 183.295L172.33 145.57C172.158 124.82 172.275 107.175 172.587 106.359C173.328 104.429 202.302 104.311 211.211 106.2ZM218.526 207.002C227.125 210.327 235.085 218.027 238.264 226.093C240.514 231.803 240.917 235.061 240.917 247.565C240.917 265.104 238.584 272.748 230.886 280.445C222.647 288.683 216.08 290.414 192.692 290.518L172.641 290.608L172.332 247.136L172.022 203.665L192.383 204.214C208.6 204.653 213.921 205.22 218.526 207.002Z" fill="#F4F6FD"/>
</svg>
